<?xml version="1.0" standalone="no"?>
<!DOCTYPE svg PUBLIC "-//W3C//DTD SVG 20010904//EN"
 "http://www.w3.org/TR/2001/REC-SVG-20010904/DTD/svg10.dtd">
<svg version="1.0" xmlns="http://www.w3.org/2000/svg"
 width="1024.000000pt" height="1024.000000pt" viewBox="0 0 1024.000000 1024.000000"
 preserveAspectRatio="xMidYMid meet">
<metadata>
Created by potrace 1.11, written by Peter Selinger 2001-2013
</metadata>
<g transform="translate(0.000000,1024.000000) scale(0.100000,-0.100000)"
fill="#000000" stroke="none">
<path d="M2401 7733 c-48 -17 -146 -106 -136 -123 3 -6 2 -10 -3 -10 -30 0
-32 -100 -29 -1670 2 -872 7 -1605 11 -1629 12 -71 56 -201 68 -201 6 0 8 -3
5 -7 -11 -10 59 -130 114 -198 68 -83 188 -185 275 -235 40 -23 79 -43 86 -44
7 -2 25 -8 39 -14 29 -11 91 -29 142 -40 18 -3 740 -8 1605 -9 1710 -3 1632
-5 1788 51 80 29 193 96 243 144 22 20 43 37 47 37 21 0 156 176 198 257 74
144 98 237 101 407 2 79 5 145 7 147 2 2 94 4 204 4 175 1 260 7 369 26 59 10
190 46 225 61 19 9 43 17 53 19 56 12 347 183 347 205 0 5 7 9 16 9 16 0 294
272 294 288 0 5 9 20 21 33 31 36 81 109 74 109 -4 0 1 7 10 16 19 19 102 182
107 210 1 10 6 21 9 24 8 6 44 117 63 195 25 98 45 321 39 430 -6 118 -18 232
-30 275 -3 14 -7 30 -9 37 -18 87 -26 119 -40 151 -9 20 -19 45 -21 55 -6 32
-85 197 -94 197 -5 0 -9 6 -9 13 0 17 -110 178 -126 184 -8 3 -12 9 -9 13 8
13 -203 220 -290 286 -128 96 -293 188 -385 215 -25 7 -49 16 -55 20 -15 11
-127 39 -136 33 -4 -2 -10 0 -13 5 -3 5 -27 12 -54 15 -26 4 -67 10 -92 14
-25 3 -1156 7 -2515 8 -2227 2 -2474 1 -2514 -13z m5014 -802 c89 -23 216 -82
255 -118 14 -13 32 -26 40 -29 12 -4 101 -100 165 -177 10 -12 75 -143 75
-151 0 -3 5 -17 12 -33 19 -47 40 -173 41 -243 1 -107 -34 -262 -78 -351 -14
-27 -25 -52 -24 -55 0 -4 -3 -10 -8 -13 -5 -3 -32 -35 -60 -71 -60 -76 -110
-123 -184 -172 -74 -48 -117 -70 -164 -84 -148 -44 -197 -49 -470 -45 l-60 1
2 768 c1 422 2 775 2 786 1 18 10 18 189 13 144 -4 205 -10 267 -26z"/>
<path d="M1185 2943 c3 -47 8 -89 10 -93 3 -5 7 -27 10 -51 3 -23 10 -48 15
-54 6 -7 7 -14 5 -17 -3 -3 0 -18 6 -34 7 -16 13 -36 15 -44 6 -29 84 -177
106 -201 13 -13 24 -29 26 -34 14 -46 228 -255 261 -255 6 0 11 -4 11 -8 0 -9
50 -40 64 -40 5 0 12 -5 15 -10 6 -9 81 -50 91 -50 3 0 22 -7 43 -16 55 -22
116 -38 126 -31 5 3 11 1 13 -5 1 -5 35 -13 73 -17 97 -10 5475 -10 5555 0 66
8 177 34 195 45 5 4 19 8 29 9 34 6 214 105 251 138 19 18 35 30 35 27 0 -4
32 25 71 63 73 73 166 191 161 206 -1 5 2 9 7 9 23 0 143 291 126 308 -2 3 0
11 5 17 6 7 13 60 16 118 l7 106 -3677 -1 -3676 0 5 -85z"/>
</g>
</svg>
